<mxfile host="app.diagrams.net" modified="2023-08-28T14:40:45.334Z" agent="Mozilla/5.0 (Macintosh; Intel Mac OS X 10_15_7) AppleWebKit/537.36 (KHTML, like Gecko) Chrome/116.0.0.0 Safari/537.36" etag="sgsjxeZ4o4fzEC7ds3gg" version="21.6.9" type="github">
  <diagram name="Page-1" id="e6z4LAV1mBnPnPZ37GUI">
    <mxGraphModel dx="1327" dy="1824" grid="1" gridSize="10" guides="1" tooltips="1" connect="1" arrows="1" fold="1" page="1" pageScale="1" pageWidth="850" pageHeight="1100" math="0" shadow="0">
      <root>
        <mxCell id="0" />
        <mxCell id="1" parent="0" />
        <mxCell id="w5l_St8V9M0qMsjk0MEZ-76" style="edgeStyle=orthogonalEdgeStyle;rounded=0;orthogonalLoop=1;jettySize=auto;html=1;exitX=0.049;exitY=0.515;exitDx=0;exitDy=0;exitPerimeter=0;" edge="1" parent="1" source="w5l_St8V9M0qMsjk0MEZ-1" target="w5l_St8V9M0qMsjk0MEZ-7">
          <mxGeometry relative="1" as="geometry" />
        </mxCell>
        <mxCell id="w5l_St8V9M0qMsjk0MEZ-1" value="" style="html=1;verticalLabelPosition=bottom;align=center;labelBackgroundColor=#ffffff;verticalAlign=top;strokeWidth=2;strokeColor=#0080F0;shadow=0;dashed=0;shape=mxgraph.ios7.icons.smartphone;" vertex="1" parent="1">
          <mxGeometry x="570" y="-1070" width="14" height="30" as="geometry" />
        </mxCell>
        <mxCell id="w5l_St8V9M0qMsjk0MEZ-9" style="edgeStyle=orthogonalEdgeStyle;rounded=0;orthogonalLoop=1;jettySize=auto;html=1;" edge="1" parent="1" source="w5l_St8V9M0qMsjk0MEZ-3" target="w5l_St8V9M0qMsjk0MEZ-7">
          <mxGeometry relative="1" as="geometry" />
        </mxCell>
        <mxCell id="w5l_St8V9M0qMsjk0MEZ-3" value="" style="verticalLabelPosition=bottom;html=1;verticalAlign=top;align=center;strokeColor=none;fillColor=#00BEF2;shape=mxgraph.azure.laptop;pointerEvents=1;" vertex="1" parent="1">
          <mxGeometry x="180" y="-1070" width="50" height="30" as="geometry" />
        </mxCell>
        <mxCell id="w5l_St8V9M0qMsjk0MEZ-4" value="" style="rounded=1;whiteSpace=wrap;html=1;fillColor=#f5f5f5;fontColor=#333333;strokeColor=#666666;" vertex="1" parent="1">
          <mxGeometry x="75" y="-900.0000000000001" width="670" height="576.87" as="geometry" />
        </mxCell>
        <mxCell id="w5l_St8V9M0qMsjk0MEZ-82" style="edgeStyle=orthogonalEdgeStyle;rounded=0;orthogonalLoop=1;jettySize=auto;html=1;entryX=0.451;entryY=-0.004;entryDx=0;entryDy=0;entryPerimeter=0;" edge="1" parent="1" source="w5l_St8V9M0qMsjk0MEZ-7" target="w5l_St8V9M0qMsjk0MEZ-4">
          <mxGeometry relative="1" as="geometry" />
        </mxCell>
        <mxCell id="w5l_St8V9M0qMsjk0MEZ-7" value="" style="outlineConnect=0;dashed=0;verticalLabelPosition=bottom;verticalAlign=top;align=center;html=1;shape=mxgraph.aws3.api_gateway;fillColor=#D9A741;gradientColor=none;" vertex="1" parent="1">
          <mxGeometry x="340" y="-1050" width="76.5" height="93" as="geometry" />
        </mxCell>
        <mxCell id="w5l_St8V9M0qMsjk0MEZ-46" value="&lt;b&gt;&lt;font style=&quot;font-size: 14px;&quot;&gt;Masoon Fintech App&lt;/font&gt;&lt;/b&gt;" style="text;html=1;strokeColor=none;fillColor=none;align=center;verticalAlign=middle;whiteSpace=wrap;rounded=0;" vertex="1" parent="1">
          <mxGeometry x="300" y="-880" width="190" height="30" as="geometry" />
        </mxCell>
        <mxCell id="w5l_St8V9M0qMsjk0MEZ-62" value="" style="endArrow=none;html=1;rounded=0;" edge="1" parent="1" target="w5l_St8V9M0qMsjk0MEZ-49">
          <mxGeometry width="50" height="50" relative="1" as="geometry">
            <mxPoint x="210" y="-760" as="sourcePoint" />
            <mxPoint x="260" y="-810" as="targetPoint" />
          </mxGeometry>
        </mxCell>
        <mxCell id="w5l_St8V9M0qMsjk0MEZ-47" value="Authentication" style="rounded=1;whiteSpace=wrap;html=1;" vertex="1" parent="1">
          <mxGeometry x="185" y="-790" width="120" height="60" as="geometry" />
        </mxCell>
        <mxCell id="w5l_St8V9M0qMsjk0MEZ-49" value="Wallet_Management" style="rounded=1;whiteSpace=wrap;html=1;" vertex="1" parent="1">
          <mxGeometry x="530" y="-790" width="120" height="60" as="geometry" />
        </mxCell>
        <mxCell id="w5l_St8V9M0qMsjk0MEZ-64" value="" style="endArrow=none;html=1;rounded=0;exitX=0.5;exitY=0;exitDx=0;exitDy=0;" edge="1" parent="1" source="w5l_St8V9M0qMsjk0MEZ-58" target="w5l_St8V9M0qMsjk0MEZ-49">
          <mxGeometry width="50" height="50" relative="1" as="geometry">
            <mxPoint x="550" y="-700" as="sourcePoint" />
            <mxPoint x="600" y="-750" as="targetPoint" />
          </mxGeometry>
        </mxCell>
        <mxCell id="w5l_St8V9M0qMsjk0MEZ-65" value="" style="endArrow=none;html=1;rounded=0;" edge="1" parent="1" source="w5l_St8V9M0qMsjk0MEZ-56" target="w5l_St8V9M0qMsjk0MEZ-58">
          <mxGeometry width="50" height="50" relative="1" as="geometry">
            <mxPoint x="280" y="-450" as="sourcePoint" />
            <mxPoint x="330" y="-500" as="targetPoint" />
          </mxGeometry>
        </mxCell>
        <mxCell id="w5l_St8V9M0qMsjk0MEZ-66" value="" style="endArrow=none;html=1;rounded=0;" edge="1" parent="1" source="w5l_St8V9M0qMsjk0MEZ-53">
          <mxGeometry width="50" height="50" relative="1" as="geometry">
            <mxPoint x="370" y="-700" as="sourcePoint" />
            <mxPoint x="420" y="-750" as="targetPoint" />
          </mxGeometry>
        </mxCell>
        <mxCell id="w5l_St8V9M0qMsjk0MEZ-67" value="" style="endArrow=none;html=1;rounded=0;" edge="1" parent="1" target="w5l_St8V9M0qMsjk0MEZ-55">
          <mxGeometry width="50" height="50" relative="1" as="geometry">
            <mxPoint x="260" y="-670" as="sourcePoint" />
            <mxPoint x="310" y="-700" as="targetPoint" />
          </mxGeometry>
        </mxCell>
        <mxCell id="w5l_St8V9M0qMsjk0MEZ-68" value="" style="endArrow=none;html=1;rounded=0;" edge="1" parent="1" target="w5l_St8V9M0qMsjk0MEZ-54">
          <mxGeometry width="50" height="50" relative="1" as="geometry">
            <mxPoint x="270" y="-570" as="sourcePoint" />
            <mxPoint x="320" y="-620" as="targetPoint" />
          </mxGeometry>
        </mxCell>
        <mxCell id="w5l_St8V9M0qMsjk0MEZ-50" value="Investment &lt;br&gt;Goals" style="rounded=1;whiteSpace=wrap;html=1;" vertex="1" parent="1">
          <mxGeometry x="360" y="-600" width="120" height="60" as="geometry" />
        </mxCell>
        <mxCell id="w5l_St8V9M0qMsjk0MEZ-53" value="Zakat &lt;br&gt;Calculator" style="rounded=1;whiteSpace=wrap;html=1;" vertex="1" parent="1">
          <mxGeometry x="360" y="-500" width="120" height="60" as="geometry" />
        </mxCell>
        <mxCell id="w5l_St8V9M0qMsjk0MEZ-54" value="Beneficiary &lt;br&gt;Management" style="rounded=1;whiteSpace=wrap;html=1;" vertex="1" parent="1">
          <mxGeometry x="535" y="-600" width="120" height="60" as="geometry" />
        </mxCell>
        <mxCell id="w5l_St8V9M0qMsjk0MEZ-55" value="Profile" style="rounded=1;whiteSpace=wrap;html=1;" vertex="1" parent="1">
          <mxGeometry x="535" y="-700" width="120" height="60" as="geometry" />
        </mxCell>
        <mxCell id="w5l_St8V9M0qMsjk0MEZ-56" value="Bills Debt &lt;br&gt;Management" style="rounded=1;whiteSpace=wrap;html=1;" vertex="1" parent="1">
          <mxGeometry x="185" y="-500" width="120" height="60" as="geometry" />
        </mxCell>
        <mxCell id="w5l_St8V9M0qMsjk0MEZ-57" value="Budget &lt;br&gt;Management" style="rounded=1;whiteSpace=wrap;html=1;" vertex="1" parent="1">
          <mxGeometry x="360" y="-700" width="120" height="60" as="geometry" />
        </mxCell>
        <mxCell id="w5l_St8V9M0qMsjk0MEZ-58" value="Gift Card &lt;br&gt;Offers" style="rounded=1;whiteSpace=wrap;html=1;" vertex="1" parent="1">
          <mxGeometry x="530" y="-500" width="120" height="60" as="geometry" />
        </mxCell>
        <mxCell id="w5l_St8V9M0qMsjk0MEZ-63" value="" style="endArrow=none;html=1;rounded=0;exitX=0.5;exitY=0;exitDx=0;exitDy=0;" edge="1" parent="1" source="w5l_St8V9M0qMsjk0MEZ-56" target="w5l_St8V9M0qMsjk0MEZ-47">
          <mxGeometry width="50" height="50" relative="1" as="geometry">
            <mxPoint x="210" y="-700" as="sourcePoint" />
            <mxPoint x="260" y="-750" as="targetPoint" />
          </mxGeometry>
        </mxCell>
        <mxCell id="w5l_St8V9M0qMsjk0MEZ-52" value="User_Profile" style="rounded=1;whiteSpace=wrap;html=1;" vertex="1" parent="1">
          <mxGeometry x="350" y="-790" width="120" height="60" as="geometry" />
        </mxCell>
        <mxCell id="w5l_St8V9M0qMsjk0MEZ-48" value="Transaction" style="rounded=1;whiteSpace=wrap;html=1;" vertex="1" parent="1">
          <mxGeometry x="180" y="-700" width="120" height="60" as="geometry" />
        </mxCell>
        <mxCell id="w5l_St8V9M0qMsjk0MEZ-51" value="Card &lt;br&gt;Management" style="rounded=1;whiteSpace=wrap;html=1;" vertex="1" parent="1">
          <mxGeometry x="185" y="-600" width="120" height="60" as="geometry" />
        </mxCell>
        <mxCell id="w5l_St8V9M0qMsjk0MEZ-88" style="edgeStyle=orthogonalEdgeStyle;rounded=0;orthogonalLoop=1;jettySize=auto;html=1;entryX=0.17;entryY=1.01;entryDx=0;entryDy=0;entryPerimeter=0;" edge="1" parent="1" source="w5l_St8V9M0qMsjk0MEZ-83" target="w5l_St8V9M0qMsjk0MEZ-4">
          <mxGeometry relative="1" as="geometry" />
        </mxCell>
        <mxCell id="w5l_St8V9M0qMsjk0MEZ-83" value="" style="image;aspect=fixed;perimeter=ellipsePerimeter;html=1;align=center;shadow=0;dashed=0;spacingTop=3;image=img/lib/active_directory/databases.svg;" vertex="1" parent="1">
          <mxGeometry x="148.37" y="-240" width="81.63" height="80" as="geometry" />
        </mxCell>
        <mxCell id="w5l_St8V9M0qMsjk0MEZ-87" style="edgeStyle=orthogonalEdgeStyle;rounded=0;orthogonalLoop=1;jettySize=auto;html=1;entryX=0.352;entryY=1.004;entryDx=0;entryDy=0;entryPerimeter=0;" edge="1" parent="1" source="w5l_St8V9M0qMsjk0MEZ-85" target="w5l_St8V9M0qMsjk0MEZ-4">
          <mxGeometry relative="1" as="geometry" />
        </mxCell>
        <mxCell id="w5l_St8V9M0qMsjk0MEZ-85" value="External Services" style="ellipse;whiteSpace=wrap;html=1;fillColor=#ffe6cc;strokeColor=#d79b00;" vertex="1" parent="1">
          <mxGeometry x="240" y="-240" width="140" height="80" as="geometry" />
        </mxCell>
        <mxCell id="w5l_St8V9M0qMsjk0MEZ-93" style="edgeStyle=orthogonalEdgeStyle;rounded=0;orthogonalLoop=1;jettySize=auto;html=1;entryX=0.588;entryY=0.999;entryDx=0;entryDy=0;entryPerimeter=0;" edge="1" parent="1" source="w5l_St8V9M0qMsjk0MEZ-89" target="w5l_St8V9M0qMsjk0MEZ-4">
          <mxGeometry relative="1" as="geometry" />
        </mxCell>
        <mxCell id="w5l_St8V9M0qMsjk0MEZ-89" value="Notification&amp;nbsp;" style="rounded=0;whiteSpace=wrap;html=1;fillColor=#dae8fc;strokeColor=#6c8ebf;" vertex="1" parent="1">
          <mxGeometry x="410" y="-240" width="120" height="80" as="geometry" />
        </mxCell>
        <mxCell id="w5l_St8V9M0qMsjk0MEZ-95" value="" style="edgeStyle=orthogonalEdgeStyle;rounded=0;orthogonalLoop=1;jettySize=auto;html=1;" edge="1" parent="1" source="w5l_St8V9M0qMsjk0MEZ-94" target="w5l_St8V9M0qMsjk0MEZ-4">
          <mxGeometry relative="1" as="geometry" />
        </mxCell>
        <mxCell id="w5l_St8V9M0qMsjk0MEZ-94" value="" style="sketch=0;pointerEvents=1;shadow=0;dashed=0;html=1;strokeColor=none;labelPosition=center;verticalLabelPosition=bottom;verticalAlign=top;align=center;fillColor=#515151;shape=mxgraph.mscae.system_center.admin_console" vertex="1" parent="1">
          <mxGeometry x="600" y="-228" width="70" height="56" as="geometry" />
        </mxCell>
        <mxCell id="w5l_St8V9M0qMsjk0MEZ-96" value="Admin" style="text;html=1;align=center;verticalAlign=middle;resizable=0;points=[];autosize=1;strokeColor=none;fillColor=none;" vertex="1" parent="1">
          <mxGeometry x="630" y="-292" width="60" height="30" as="geometry" />
        </mxCell>
      </root>
    </mxGraphModel>
  </diagram>
</mxfile>
